<?xml version="1.0" encoding="utf-8"?>
<!-- Generator: Adobe Illustrator 16.0.0, SVG Export Plug-In . SVG Version: 6.00 Build 0)  -->
<!DOCTYPE svg PUBLIC "-//W3C//DTD SVG 1.1//EN" "http://www.w3.org/Graphics/SVG/1.1/DTD/svg11.dtd">
<svg version="1.1" id="Layer_1" xmlns="http://www.w3.org/2000/svg" xmlns:xlink="http://www.w3.org/1999/xlink" x="0px" y="0px"
	 width="1000px" height="1000px" viewBox="0 0 1000 1000" enable-background="new 0 0 1000 1000" xml:space="preserve">
<path d="M937.656,878.299L559.337,499.979l378.277-378.278c16.396-16.391,16.396-42.945,0-59.337
	c-16.389-16.393-42.943-16.393-59.337,0L500,440.643L121.721,62.365c-16.392-16.393-42.946-16.393-59.337,0
	c-16.392,16.392-16.392,42.946,0,59.337L440.662,499.98L62.343,878.299c-16.392,16.391-16.392,42.947,0,59.338
	c8.195,8.195,18.932,12.293,29.668,12.293s21.473-4.098,29.668-12.293l378.319-378.319l378.319,378.319
	c8.197,8.195,18.932,12.293,29.67,12.293c10.735,0,21.474-4.098,29.668-12.293C954.05,921.246,954.05,894.689,937.656,878.299z"/>
</svg>
